<svg xmlns="http://www.w3.org/2000/svg" viewBox="0 0 511.45 498.66"><defs><style>.a{fill:#1e3101;}.b{fill:#99e83f;}</style></defs><title>adobe-dimension</title><rect class="a" width="511.45" height="498.66" rx="90.57"/><path class="b" d="M74.54,349V130.8a2.5,2.5,0,0,1,2.24-2.74h.16q5.15-.33,15.1-.51t23.33-.35q13.38-.16,28.47-.17,41.17,0,68.28,14.07a95,95,0,0,1,40.66,38.6q13.54,24.52,13.55,56.44a125.92,125.92,0,0,1-7,43.74,102.16,102.16,0,0,1-19.22,32.77,114.1,114.1,0,0,1-27.62,22.81,121.48,121.48,0,0,1-32.93,13.38,145.18,145.18,0,0,1-34.66,4.29H119.31q-13.56,0-25.22-.17c-7.77-.12-13.61-.29-17.49-.51C75.22,352.44,74.54,351.29,74.54,349Zm47.35-179.79v142c2.51,0,4.8.05,6.86.17l6.35.34c2.17.12,4.62.18,7.37.17a91.89,91.89,0,0,0,30.54-4.8,62.44,62.44,0,0,0,23.5-14.41,64.73,64.73,0,0,0,15.1-23.68,89.79,89.79,0,0,0,5.31-31.9,80.45,80.45,0,0,0-5.14-30,56.75,56.75,0,0,0-14.93-21.62,61.09,61.09,0,0,0-23.33-12.87,102,102,0,0,0-29.68-4.11c-4.57,0-8.41.05-11.49.17S125.77,169,121.89,169.22Z"/><path class="b" d="M287.3,349.35V221.72q0-5.83-.17-13T286.61,195q-.35-6.53-.68-10.3a2,2,0,0,1,.34-2.06,2.81,2.81,0,0,1,2.06-.68H324a7.66,7.66,0,0,1,3.43.68,3.27,3.27,0,0,1,1.72,2.41c.45,1.37,1,2.91,1.54,4.63a28.49,28.49,0,0,1,1.2,6.35,68.63,68.63,0,0,1,22.65-13.21,77.67,77.67,0,0,1,25.73-4.29,65.18,65.18,0,0,1,20.07,3.26,50.69,50.69,0,0,1,32.42,31.56q5.14,13.22,5.15,34.14v101.9c0,2.06-.92,3.09-2.75,3.09H393.66a3,3,0,0,1-3.43-2.57,3.1,3.1,0,0,1,0-.86V251.57a42.92,42.92,0,0,0-3.09-17.5,24.56,24.56,0,0,0-8.75-10.64,25.8,25.8,0,0,0-14.58-3.77,42.78,42.78,0,0,0-16.13,2.91A40.67,40.67,0,0,0,335,230.64V349.35c0,2.06-.92,3.09-2.75,3.09H290.39a2.73,2.73,0,0,1-3.09-2.32,2.49,2.49,0,0,1,0-.77Z"/></svg>