<svg xmlns="http://www.w3.org/2000/svg" xmlns:xlink="http://www.w3.org/1999/xlink" viewBox="0,0,256,256" width="30px" height="30px" fill-rule="nonzero"><g fill="#ffffff" fill-rule="nonzero" stroke="none" stroke-width="1" stroke-linecap="butt" stroke-linejoin="miter" stroke-miterlimit="10" stroke-dasharray="" stroke-dashoffset="0" font-family="none" font-weight="none" font-size="none" text-anchor="none" style="mix-blend-mode: normal"><g transform="scale(8.53333,8.53333)"><path d="M14,3c-1.105,0 -2,0.895 -2,2h-8c-1.105,0 -2,0.895 -2,2v9c0,1.105 0.895,2 2,2h22c1.105,0 2,-0.895 2,-2v-9c0,-1.105 -0.895,-2 -2,-2h-8c0,-1.105 -0.895,-2 -2,-2zM15,14c0.552,0 1,0.448 1,1c0,0.552 -0.448,1 -1,1c-0.552,0 -1,-0.448 -1,-1c0,-0.552 0.448,-1 1,-1zM2,19.44336v3.55664c0,1.105 0.895,2 2,2h22c1.105,0 2,-0.895 2,-2v-3.55664c-0.591,0.344 -1.268,0.55664 -2,0.55664h-22c-0.732,0 -1.409,-0.21264 -2,-0.55664z"></path></g></g></svg>