<svg xmlns="http://www.w3.org/2000/svg" xmlns:xlink="http://www.w3.org/1999/xlink" viewBox="0,0,256,256" width="30px" height="30px" fill-rule="nonzero"><g fill="#ffffff" fill-rule="nonzero" stroke="none" stroke-width="1" stroke-linecap="butt" stroke-linejoin="miter" stroke-miterlimit="10" stroke-dasharray="" stroke-dashoffset="0" font-family="none" font-weight="none" font-size="none" text-anchor="none" style="mix-blend-mode: normal"><g transform="scale(8.53333,8.53333)"><path d="M24,2h-20v26h20c1.105,0 2,-0.895 2,-2v-22c0,-1.105 -0.895,-2 -2,-2zM9,21c0,-3.792 4,-2.708 4.5,-4.333v-1.083c-0.225,-0.121 -0.868,-0.951 -0.936,-1.599c-0.177,-0.015 -0.455,-0.191 -0.537,-0.886c-0.044,-0.373 0.131,-0.583 0.237,-0.649c0,0 -0.264,-0.602 -0.264,-1.199c0,-1.777 0.879,-3.251 3,-3.251c1.145,0 1.5,0.812 1.5,0.812c1.023,0 1.5,1.122 1.5,2.438c0,0.656 -0.264,1.199 -0.264,1.199c0.106,0.066 0.281,0.276 0.237,0.649c-0.082,0.695 -0.36,0.871 -0.537,0.886c-0.068,0.648 -0.711,1.478 -0.936,1.599v1.083c0.5,1.626 4.5,0.542 4.5,4.334z"></path></g></g></svg>