<svg id="Layer_1" data-name="Layer 1" xmlns="http://www.w3.org/2000/svg" viewBox="0 0 122.88 121.83"><defs><style>.cls-1,.cls-2{fill-rule:evenodd;}.cls-2{fill:red;}.cls-3{fill:#fff;}</style></defs><title>cad</title><path class="cls-1" d="M102.42,37H81.92a8.52,8.52,0,0,1-8.85-8.7V7.53H21a.58.58,0,0,0-.41.18.45.45,0,0,0-.18.42V113.71a.7.7,0,0,0,.18.41.51.51,0,0,0,.41.18h80.84c.18,0,.17-.09.26-.18s.34-.28.34-.41V37Zm7.47,79.08a5.77,5.77,0,0,1-5.76,5.76H18.66a5.77,5.77,0,0,1-5.76-5.76V5.76a5.7,5.7,0,0,1,1.69-4.07A5.77,5.77,0,0,1,18.66,0H76.9a4.22,4.22,0,0,1,2.46.82l29.75,30.12a2.57,2.57,0,0,1,.78,2.6v82.53ZM80,27.69,79.57,9.63,100.66,31l-18.14-.81A2.4,2.4,0,0,1,80,27.69Z"/><path class="cls-2" d="M6.71,46.28H116.17A6.73,6.73,0,0,1,122.88,53v45.1a6.73,6.73,0,0,1-6.71,6.71H6.71A6.73,6.73,0,0,1,0,98.09V53a6.73,6.73,0,0,1,6.71-6.71Z"/><path class="cls-3" d="M34.93,78.4,43.47,81a15.54,15.54,0,0,1-2.72,6,11.72,11.72,0,0,1-4.59,3.64,17.3,17.3,0,0,1-7,1.22,20.44,20.44,0,0,1-8.41-1.49,13.39,13.39,0,0,1-5.62-5.25,17.79,17.79,0,0,1-2.37-9.62q0-7.81,4.16-12t11.78-4.2q6,0,9.38,2.41a14.16,14.16,0,0,1,5.06,7.4L34.57,71a7.28,7.28,0,0,0-.94-2.09,5.68,5.68,0,0,0-2-1.71,5.77,5.77,0,0,0-2.65-.6,5.74,5.74,0,0,0-5.08,2.65q-1.34,2-1.34,6.2,0,5.24,1.6,7.17a5.44,5.44,0,0,0,4.47,1.94A5.41,5.41,0,0,0,32.85,83a9.79,9.79,0,0,0,2.08-4.55Zm31.9,7.71h-11L54.21,91.3H44.27L56.13,59.78H66.8L78.61,91.3H68.41l-1.58-5.19Zm-2.06-6.83L61.33,68,57.87,79.28Zm16.31-19.5H95.56a17.47,17.47,0,0,1,6.92,1.16,11.23,11.23,0,0,1,4.35,3.33,13.66,13.66,0,0,1,2.49,5,23.36,23.36,0,0,1,.78,6.11A21.16,21.16,0,0,1,109,83.27a13,13,0,0,1-3.19,4.66,10.38,10.38,0,0,1-4.39,2.51,22.39,22.39,0,0,1-5.81.86H81.08V59.78Zm9.73,7.13V84.13h2.4a10.16,10.16,0,0,0,4.36-.68,4.65,4.65,0,0,0,2-2.36,14.79,14.79,0,0,0,.74-5.48q0-5-1.64-6.85c-1.09-1.23-2.91-1.85-5.44-1.85Z"/></svg>