<svg xmlns="http://www.w3.org/2000/svg" xmlns:xlink="http://www.w3.org/1999/xlink" viewBox="0,0,256,256" width="30px" height="30px" fill-rule="nonzero"><g fill="#ffffff" fill-rule="nonzero" stroke="none" stroke-width="1" stroke-linecap="butt" stroke-linejoin="miter" stroke-miterlimit="10" stroke-dasharray="" stroke-dashoffset="0" font-family="none" font-weight="none" font-size="none" text-anchor="none" style="mix-blend-mode: normal"><g transform="scale(8.53333,8.53333)"><path d="M24,3c-1.65685,0 -3,1.34315 -3,3c0.00086,0.50634 0.12987,1.00422 0.375,1.44727l-5.82422,6.55273h-6.72461c-0.42351,-1.19786 -1.55565,-1.99904 -2.82617,-2c-1.65685,0 -3,1.34315 -3,3c0,1.65685 1.34315,3 3,3c1.2698,-0.00178 2.40095,-0.80282 2.82422,-2h6.72656l5.82227,6.55078c-0.24477,0.44381 -0.37311,0.94239 -0.37305,1.44922c0,1.65685 1.34315,3 3,3c1.65685,0 3,-1.34315 3,-3c0,-1.65685 -1.34315,-3 -3,-3c-0.3878,0.00043 -0.77184,0.07604 -1.13086,0.22266l-5.53125,-6.22266l5.53125,-6.22266c0.35902,0.14661 0.74306,0.22223 1.13086,0.22266c1.65685,0 3,-1.34315 3,-3c0,-1.65685 -1.34315,-3 -3,-3z"></path></g></g></svg>